<svg width="19" height="20" viewBox="0 0 19 20" fill="none" xmlns="http://www.w3.org/2000/svg">
<path d="M9.72043 0.721069C4.65028 0.721069 0.525513 4.84584 0.525513 9.91598C0.525513 14.9861 4.65028 19.1109 9.72043 19.1109C14.7906 19.1109 18.9153 14.9861 18.9153 9.91598C18.9153 4.84584 14.7906 0.721069 9.72043 0.721069ZM9.72043 18.4298C5.02591 18.4298 1.20662 14.6105 1.20662 9.91598C1.20662 5.22147 5.02591 1.40217 9.72043 1.40217C14.4149 1.40217 18.2342 5.22147 18.2342 9.91598C18.2342 14.6105 14.4149 18.4298 9.72043 18.4298Z" fill="white"/>
<path d="M9.72043 0.721069C4.65028 0.721069 0.525513 4.84584 0.525513 9.91598C0.525513 14.9861 4.65028 19.1109 9.72043 19.1109C14.7906 19.1109 18.9153 14.9861 18.9153 9.91598C18.9153 4.84584 14.7906 0.721069 9.72043 0.721069ZM9.72043 18.4298C5.02591 18.4298 1.20662 14.6105 1.20662 9.91598C1.20662 5.22147 5.02591 1.40217 9.72043 1.40217C14.4149 1.40217 18.2342 5.22147 18.2342 9.91598C18.2342 14.6105 14.4149 18.4298 9.72043 18.4298Z" fill="white"/>
<path d="M9.72043 0.721069C4.65028 0.721069 0.525513 4.84584 0.525513 9.91598C0.525513 14.9861 4.65028 19.1109 9.72043 19.1109C14.7906 19.1109 18.9153 14.9861 18.9153 9.91598C18.9153 4.84584 14.7906 0.721069 9.72043 0.721069ZM9.72043 18.4298C5.02591 18.4298 1.20662 14.6105 1.20662 9.91598C1.20662 5.22147 5.02591 1.40217 9.72043 1.40217C14.4149 1.40217 18.2342 5.22147 18.2342 9.91598C18.2342 14.6105 14.4149 18.4298 9.72043 18.4298Z" fill="white"/>
<path d="M11.5637 5.58876C11.4305 5.4556 11.2153 5.4556 11.0821 5.58876L7.16646 9.50443C6.93931 9.73158 6.93931 10.1007 7.16646 10.3279L11.0821 14.2436C11.1485 14.31 11.2357 14.3433 11.3229 14.3433C11.4101 14.3433 11.4973 14.31 11.5637 14.2436C11.6968 14.1104 11.6968 13.8952 11.5637 13.762L7.71781 9.91616L11.5637 6.0703C11.6968 5.93714 11.6968 5.72191 11.5637 5.58876Z" fill="white"/>
<path d="M11.5637 5.58876C11.4305 5.4556 11.2153 5.4556 11.0821 5.58876L7.16646 9.50443C6.93931 9.73158 6.93931 10.1007 7.16646 10.3279L11.0821 14.2436C11.1485 14.31 11.2357 14.3433 11.3229 14.3433C11.4101 14.3433 11.4973 14.31 11.5637 14.2436C11.6968 14.1104 11.6968 13.8952 11.5637 13.762L7.71781 9.91616L11.5637 6.0703C11.6968 5.93714 11.6968 5.72191 11.5637 5.58876Z" fill="white"/>
<path d="M11.5637 5.58876C11.4305 5.4556 11.2153 5.4556 11.0821 5.58876L7.16646 9.50443C6.93931 9.73158 6.93931 10.1007 7.16646 10.3279L11.0821 14.2436C11.1485 14.31 11.2357 14.3433 11.3229 14.3433C11.4101 14.3433 11.4973 14.31 11.5637 14.2436C11.6968 14.1104 11.6968 13.8952 11.5637 13.762L7.71781 9.91616L11.5637 6.0703C11.6968 5.93714 11.6968 5.72191 11.5637 5.58876Z" fill="white"/>
</svg>
