<svg width="62" height="62" viewBox="0 0 62 62" fill="none" xmlns="http://www.w3.org/2000/svg">
<path d="M31 62C48.0936 62 62 48.0936 62 31C62 13.9064 48.0936 -1.66893e-06 31 -1.66893e-06C13.9064 -1.66893e-06 -1.66893e-06 13.9064 -1.66893e-06 31C-1.66893e-06 48.0936 13.9064 62 31 62ZM31 2.29629C46.8272 2.29629 59.7037 15.1728 59.7037 31C59.7037 46.8272 46.8272 59.7037 31 59.7037C15.1728 59.7037 2.29629 46.8272 2.29629 31C2.29629 15.1728 15.1728 2.29629 31 2.29629Z" fill="white"/>
<path d="M31 62C48.0936 62 62 48.0936 62 31C62 13.9064 48.0936 -1.66893e-06 31 -1.66893e-06C13.9064 -1.66893e-06 -1.66893e-06 13.9064 -1.66893e-06 31C-1.66893e-06 48.0936 13.9064 62 31 62ZM31 2.29629C46.8272 2.29629 59.7037 15.1728 59.7037 31C59.7037 46.8272 46.8272 59.7037 31 59.7037C15.1728 59.7037 2.29629 46.8272 2.29629 31C2.29629 15.1728 15.1728 2.29629 31 2.29629Z" fill="white"/>
<path d="M31 62C48.0936 62 62 48.0936 62 31C62 13.9064 48.0936 -1.66893e-06 31 -1.66893e-06C13.9064 -1.66893e-06 -1.66893e-06 13.9064 -1.66893e-06 31C-1.66893e-06 48.0936 13.9064 62 31 62ZM31 2.29629C46.8272 2.29629 59.7037 15.1728 59.7037 31C59.7037 46.8272 46.8272 59.7037 31 59.7037C15.1728 59.7037 2.29629 46.8272 2.29629 31C2.29629 15.1728 15.1728 2.29629 31 2.29629Z" fill="white"/>
<path d="M25.1849 45.3249C25.6411 45.781 26.3784 45.781 26.8346 45.3249L40.2489 31.9105C41.0271 31.1324 41.0271 29.8677 40.2489 29.0895L26.8346 15.6752C26.6071 15.4477 26.3084 15.3334 26.0097 15.3334C25.7111 15.3334 25.4124 15.4477 25.1849 15.6752C24.7287 16.1314 24.7287 16.8687 25.1849 17.3249L38.3601 30.5L25.1849 43.6752C24.7287 44.1314 24.7287 44.8687 25.1849 45.3249Z" fill="white"/>
<path d="M25.1849 45.3249C25.6411 45.781 26.3784 45.781 26.8346 45.3249L40.2489 31.9105C41.0271 31.1324 41.0271 29.8677 40.2489 29.0895L26.8346 15.6752C26.6071 15.4477 26.3084 15.3334 26.0097 15.3334C25.7111 15.3334 25.4124 15.4477 25.1849 15.6752C24.7287 16.1314 24.7287 16.8687 25.1849 17.3249L38.3601 30.5L25.1849 43.6752C24.7287 44.1314 24.7287 44.8687 25.1849 45.3249Z" fill="white"/>
<path d="M25.1849 45.3249C25.6411 45.781 26.3784 45.781 26.8346 45.3249L40.2489 31.9105C41.0271 31.1324 41.0271 29.8677 40.2489 29.0895L26.8346 15.6752C26.6071 15.4477 26.3084 15.3334 26.0097 15.3334C25.7111 15.3334 25.4124 15.4477 25.1849 15.6752C24.7287 16.1314 24.7287 16.8687 25.1849 17.3249L38.3601 30.5L25.1849 43.6752C24.7287 44.1314 24.7287 44.8687 25.1849 45.3249Z" fill="white"/>
</svg>
