<svg width="20" height="20" viewBox="0 0 20 20" fill="none" xmlns="http://www.w3.org/2000/svg">
<path d="M9.98306 19.1111C15.0532 19.1111 19.178 14.9863 19.178 9.91617C19.178 4.84603 15.0532 0.721254 9.98306 0.721254C4.91292 0.721254 0.788149 4.84603 0.788149 9.91617C0.788149 14.9863 4.91292 19.1111 9.98306 19.1111ZM9.98306 1.40236C14.6776 1.40236 18.4969 5.22165 18.4969 9.91617C18.4969 14.6107 14.6776 18.43 9.98306 18.43C5.28855 18.43 1.46925 14.6107 1.46925 9.91617C1.46925 5.22165 5.28855 1.40236 9.98306 1.40236Z" fill="white"/>
<path d="M9.98306 19.1111C15.0532 19.1111 19.178 14.9863 19.178 9.91617C19.178 4.84603 15.0532 0.721254 9.98306 0.721254C4.91292 0.721254 0.788149 4.84603 0.788149 9.91617C0.788149 14.9863 4.91292 19.1111 9.98306 19.1111ZM9.98306 1.40236C14.6776 1.40236 18.4969 5.22165 18.4969 9.91617C18.4969 14.6107 14.6776 18.43 9.98306 18.43C5.28855 18.43 1.46925 14.6107 1.46925 9.91617C1.46925 5.22165 5.28855 1.40236 9.98306 1.40236Z" fill="white"/>
<path d="M9.98306 19.1111C15.0532 19.1111 19.178 14.9863 19.178 9.91617C19.178 4.84603 15.0532 0.721254 9.98306 0.721254C4.91292 0.721254 0.788149 4.84603 0.788149 9.91617C0.788149 14.9863 4.91292 19.1111 9.98306 19.1111ZM9.98306 1.40236C14.6776 1.40236 18.4969 5.22165 18.4969 9.91617C18.4969 14.6107 14.6776 18.43 9.98306 18.43C5.28855 18.43 1.46925 14.6107 1.46925 9.91617C1.46925 5.22165 5.28855 1.40236 9.98306 1.40236Z" fill="white"/>
<path d="M8.25841 14.1649C8.39372 14.3002 8.61242 14.3002 8.74772 14.1649L12.7265 10.1861C12.9574 9.95524 12.9574 9.58013 12.7265 9.34931L8.74772 5.37049C8.68024 5.30301 8.59165 5.2691 8.50307 5.2691C8.41448 5.2691 8.32589 5.30301 8.25841 5.37049C8.12311 5.50579 8.12311 5.72449 8.25841 5.85979L12.1663 9.76768L8.25841 13.6756C8.12311 13.8109 8.12311 14.0296 8.25841 14.1649Z" fill="white"/>
<path d="M8.25841 14.1649C8.39372 14.3002 8.61242 14.3002 8.74772 14.1649L12.7265 10.1861C12.9574 9.95524 12.9574 9.58013 12.7265 9.34931L8.74772 5.37049C8.68024 5.30301 8.59165 5.2691 8.50307 5.2691C8.41448 5.2691 8.32589 5.30301 8.25841 5.37049C8.12311 5.50579 8.12311 5.72449 8.25841 5.85979L12.1663 9.76768L8.25841 13.6756C8.12311 13.8109 8.12311 14.0296 8.25841 14.1649Z" fill="white"/>
<path d="M8.25841 14.1649C8.39372 14.3002 8.61242 14.3002 8.74772 14.1649L12.7265 10.1861C12.9574 9.95524 12.9574 9.58013 12.7265 9.34931L8.74772 5.37049C8.68024 5.30301 8.59165 5.2691 8.50307 5.2691C8.41448 5.2691 8.32589 5.30301 8.25841 5.37049C8.12311 5.50579 8.12311 5.72449 8.25841 5.85979L12.1663 9.76768L8.25841 13.6756C8.12311 13.8109 8.12311 14.0296 8.25841 14.1649Z" fill="white"/>
</svg>
