<svg width="62" height="62" viewBox="0 0 62 62" fill="none" xmlns="http://www.w3.org/2000/svg">
<path d="M31 0C13.9064 0 0 13.9064 0 31C0 48.0936 13.9064 62 31 62C48.0936 62 62 48.0936 62 31C62 13.9064 48.0936 0 31 0ZM31 59.7037C15.1728 59.7037 2.2963 46.8272 2.2963 31C2.2963 15.1728 15.1728 2.2963 31 2.2963C46.8272 2.2963 59.7037 15.1728 59.7037 31C59.7037 46.8272 46.8272 59.7037 31 59.7037Z" fill="white"/>
<path d="M31 0C13.9064 0 0 13.9064 0 31C0 48.0936 13.9064 62 31 62C48.0936 62 62 48.0936 62 31C62 13.9064 48.0936 0 31 0ZM31 59.7037C15.1728 59.7037 2.2963 46.8272 2.2963 31C2.2963 15.1728 15.1728 2.2963 31 2.2963C46.8272 2.2963 59.7037 15.1728 59.7037 31C59.7037 46.8272 46.8272 59.7037 31 59.7037Z" fill="white"/>
<path d="M31 0C13.9064 0 0 13.9064 0 31C0 48.0936 13.9064 62 31 62C48.0936 62 62 48.0936 62 31C62 13.9064 48.0936 0 31 0ZM31 59.7037C15.1728 59.7037 2.2963 46.8272 2.2963 31C2.2963 15.1728 15.1728 2.2963 31 2.2963C46.8272 2.2963 59.7037 15.1728 59.7037 31C59.7037 46.8272 46.8272 59.7037 31 59.7037Z" fill="white"/>
<path d="M37.2149 16.4104C36.766 15.9615 36.0404 15.9615 35.5914 16.4104L22.39 29.6118C21.6242 30.3776 21.6242 31.6222 22.39 32.3881L35.5914 45.5895C35.8153 45.8134 36.1093 45.9259 36.4032 45.9259C36.6971 45.9259 36.991 45.8134 37.2149 45.5895C37.6638 45.1405 37.6638 44.4149 37.2149 43.966L24.2489 30.9999L37.2149 18.0339C37.6638 17.585 37.6638 16.8594 37.2149 16.4104Z" fill="white"/>
<path d="M37.2149 16.4104C36.766 15.9615 36.0404 15.9615 35.5914 16.4104L22.39 29.6118C21.6242 30.3776 21.6242 31.6222 22.39 32.3881L35.5914 45.5895C35.8153 45.8134 36.1093 45.9259 36.4032 45.9259C36.6971 45.9259 36.991 45.8134 37.2149 45.5895C37.6638 45.1405 37.6638 44.4149 37.2149 43.966L24.2489 30.9999L37.2149 18.0339C37.6638 17.585 37.6638 16.8594 37.2149 16.4104Z" fill="white"/>
<path d="M37.2149 16.4104C36.766 15.9615 36.0404 15.9615 35.5914 16.4104L22.39 29.6118C21.6242 30.3776 21.6242 31.6222 22.39 32.3881L35.5914 45.5895C35.8153 45.8134 36.1093 45.9259 36.4032 45.9259C36.6971 45.9259 36.991 45.8134 37.2149 45.5895C37.6638 45.1405 37.6638 44.4149 37.2149 43.966L24.2489 30.9999L37.2149 18.0339C37.6638 17.585 37.6638 16.8594 37.2149 16.4104Z" fill="white"/>
</svg>
