<svg width="81" height="80" viewBox="0 0 81 80" fill="none" xmlns="http://www.w3.org/2000/svg">
<path d="M50.7023 75.8528C50.7023 73.7124 49.2308 71.9732 47.3579 71.9732H41.3378V52.3077L70.5017 15.3846C70.7692 14.9833 70.903 14.3144 70.6354 13.913C70.3679 13.3779 69.9666 13.1104 69.4314 13.1104H56.7224L64.6154 2.00669L62.4749 0.401338L53.5117 13.1104H31.4381C31.1706 11.7726 30.903 10.5686 30.3679 9.49833C27.8261 3.74582 22.0736 0 15.9197 0C7.22408 0 0.267559 7.0903 0.267559 15.786C0.267559 24.4816 7.22408 31.5719 15.9197 31.5719V28.8963C8.82943 28.8963 2.94314 23.01 2.94314 15.786C2.94314 8.56187 8.82943 2.67559 15.9197 2.67559C21.1371 2.67559 25.8194 5.75251 27.9599 10.5686C28.3612 11.3712 28.6288 12.1739 28.7625 13.1104H10.5686C10.0334 13.1104 9.63211 13.2441 9.36455 13.7793C9.09699 14.3144 9.23077 14.8495 9.49833 15.2508L38.796 52.5752V71.9732H32.7759C30.7692 71.9732 29.4314 74.1137 29.4314 75.9866V77.3244H0V80H61.5385V77.3244H50.8361V75.8528H50.7023ZM27.9599 34.5151L25.8194 31.8395H53.913L47.6254 39.8662H38.6622V42.5418H45.6187L39.8662 49.7659L29.9666 37.1906H37.3244V34.5151H27.9599ZM66.6221 15.786L56.0535 29.1639H45.3512L54.7157 15.786H66.6221V15.786ZM28.8963 15.786H31.5719H51.505L42.1405 29.1639H23.8127L13.3779 15.786H28.8963V15.786ZM31.9732 75.9866C31.9732 75.1839 32.5084 74.6488 32.6421 74.6488H38.6622H41.3378H47.3579C47.4916 74.6488 48.0268 75.1839 48.0268 75.9866V77.3244H31.9732V75.9866Z" fill="#0075FF"/>
<path d="M80.1338 77.3243H64.0803V79.9999H80.1338V77.3243Z" fill="#0075FF"/>
</svg>
