<svg width="93" height="80" viewBox="0 0 93 80" fill="none" xmlns="http://www.w3.org/2000/svg">
<path d="M84.7776 70.9282H81.9798C77.9306 70.9282 74.636 74.215 74.636 78.2553C74.636 79.2188 75.4189 80 76.3846 80H90.3726C91.3383 80 92.1212 79.2188 92.1212 78.2553C92.1214 74.2153 88.8271 70.9282 84.7776 70.9282ZM78.5542 76.5107C79.1919 75.2692 80.4882 74.4174 81.9798 74.4174H84.7776C86.2692 74.4174 87.5655 75.2692 88.2034 76.5107H78.5542Z" fill="#0075FF"/>
<path d="M68.2875 78.9363C68.6046 78.4153 68.6263 77.767 68.3444 77.2261L64.8908 70.5968C64.5898 70.0192 63.9918 69.6568 63.3393 69.6568H5.2022C4.54986 69.6568 3.9516 70.0192 3.65061 70.5968L0.197035 77.2261C-0.0846039 77.767 -0.0631538 78.4153 0.253924 78.9363C0.571001 79.4574 1.13778 79.7754 1.74862 79.7754H66.7928C67.4037 79.7756 67.9704 79.4574 68.2875 78.9363ZM4.62819 76.2864L6.26394 73.1463H62.2773L63.9133 76.2864H4.62819Z" fill="#0075FF"/>
<path d="M36.5937 57.9186L35.9468 64.0152C35.8945 64.5072 36.054 64.998 36.3858 65.3658C36.7173 65.7336 37.1899 65.9434 37.6858 65.9434H56.1744C56.6701 65.9434 57.1427 65.7333 57.4744 65.3658C57.806 64.998 57.9654 64.5072 57.9135 64.0152L57.2665 57.9186H80.2959C83.8802 57.9186 86.7962 55.0093 86.7962 51.433V6.48557C86.7959 2.90933 83.8798 0 80.2956 0H12.1655C8.58111 0 5.66516 2.90933 5.66516 6.48557V51.433C5.66516 55.0093 8.58111 57.9186 12.1655 57.9186H36.5937ZM54.2307 62.4544H39.629L40.1103 57.9186H53.7493L54.2307 62.4544ZM12.1655 3.48924H80.2956C81.9517 3.48924 83.2988 4.8333 83.2988 6.48557V46.0556H9.16234V6.48557C9.16234 4.8333 10.5095 3.48924 12.1655 3.48924ZM9.16234 51.433V49.5449H83.2985V51.433C83.2985 53.0853 81.9514 54.4294 80.2954 54.4294H12.1655C10.5095 54.4294 9.16234 53.0853 9.16234 51.433Z" fill="#0075FF"/>
</svg>
