<svg width="61" height="80" viewBox="0 0 61 80" fill="none" xmlns="http://www.w3.org/2000/svg">
<path d="M30.5594 1.48632V14.4222C30.5594 15.2389 31.2291 15.9085 32.0458 15.9085C32.8624 15.9085 33.5321 15.2389 33.5321 14.4222V1.48632C33.5321 0.669661 32.8624 0 32.0458 0C31.2128 0 30.5594 0.669661 30.5594 1.48632Z" fill="#0075FF"/>
<path d="M58.9139 29.0731H45.978C45.1614 29.0731 44.4917 29.7427 44.4917 30.5594C44.4917 31.376 45.1614 32.0457 45.978 32.0457H58.9139C59.7306 32.0457 60.4002 31.376 60.4002 30.5594C60.4002 29.7427 59.7306 29.0731 58.9139 29.0731Z" fill="#0075FF"/>
<path d="M3.67493 30.5594C3.67493 31.376 4.34459 32.0457 5.16125 32.0457H18.0971C18.9138 32.0457 19.5835 31.376 19.5835 30.5594C19.5835 29.7427 18.9138 29.0731 18.0971 29.0731H5.16125C4.34459 29.0731 3.67493 29.7427 3.67493 30.5594Z" fill="#0075FF"/>
<path d="M11.7108 9.94699C11.9885 9.66933 12.1518 9.29366 12.1518 8.90167C12.1518 8.50967 11.9885 8.134 11.7108 7.85634C11.4332 7.57868 11.0575 7.41534 10.6655 7.41534C10.2735 7.41534 9.89786 7.57868 9.6202 7.85634C9.34253 8.134 9.1792 8.50967 9.1792 8.90167C9.1792 9.29366 9.34253 9.66933 9.6202 9.94699C9.89786 10.2247 10.2735 10.388 10.6655 10.388C11.0575 10.388 11.4332 10.2247 11.7108 9.94699Z" fill="#0075FF"/>
<path d="M15.7124 13.9486C15.1408 14.5203 15.1408 15.4676 15.7124 16.0393C16.0064 16.3333 16.3821 16.4803 16.7578 16.4803C17.1334 16.4803 17.5254 16.3333 17.8031 16.0393C18.3747 15.4676 18.3747 14.5203 17.8031 13.9486C17.2314 13.377 16.2841 13.377 15.7124 13.9486Z" fill="#0075FF"/>
<path d="M14.7651 13.0013C15.3368 12.4296 15.3368 11.4823 14.7651 10.9106C14.1935 10.339 13.2461 10.339 12.6745 10.9106C12.1028 11.4823 12.1028 12.4296 12.6745 13.0013C12.9685 13.2953 13.3441 13.4259 13.7198 13.4259C14.0955 13.4423 14.4711 13.2953 14.7651 13.0013Z" fill="#0075FF"/>
<path d="M18.7668 17.0028C18.4892 17.2805 18.3422 17.6562 18.3422 18.0481C18.3422 18.4401 18.5055 18.8158 18.7832 19.0935C19.0608 19.3711 19.4365 19.5345 19.8285 19.5345C20.2205 19.5345 20.5961 19.3711 20.8738 19.0935C21.1515 18.8158 21.3148 18.4401 21.3148 18.0481C21.3148 17.6562 21.1515 17.2805 20.8738 17.0028C20.5961 16.7252 20.2205 16.5618 19.8285 16.5618C19.4202 16.5618 19.0282 16.7252 18.7668 17.0028Z" fill="#0075FF"/>
<path d="M50.9759 8.80359C50.6982 9.08126 50.5349 9.45692 50.5349 9.84892C50.5349 10.2409 50.6982 10.6166 50.9759 10.8942C51.2536 11.1719 51.6292 11.3352 52.0212 11.3352C52.4132 11.3352 52.7889 11.1719 53.0666 10.8942C53.3442 10.6166 53.4912 10.2409 53.4912 9.84892C53.4912 9.45692 53.3279 9.08126 53.0666 8.80359C52.7889 8.52593 52.4132 8.37893 52.0212 8.37893C51.6456 8.36259 51.2536 8.52593 50.9759 8.80359Z" fill="#0075FF"/>
<path d="M45.9289 17.4112C46.3046 17.4112 46.6802 17.2642 46.9742 16.9865C47.5459 16.4148 47.5459 15.4675 46.9742 14.8958C46.4026 14.3242 45.4552 14.3242 44.8836 14.8958C44.3119 15.4675 44.3119 16.4148 44.8836 16.9865C45.1776 17.2805 45.5532 17.4112 45.9289 17.4112Z" fill="#0075FF"/>
<path d="M47.9379 11.8416C47.3662 12.4133 47.3662 13.3606 47.9379 13.9322C48.2319 14.2262 48.6076 14.3732 48.9832 14.3732C49.3589 14.3732 49.7346 14.2262 50.0285 13.9322C50.6002 13.3606 50.6002 12.4133 50.0285 11.8416C49.4569 11.2699 48.5096 11.2699 47.9379 11.8416Z" fill="#0075FF"/>
<path d="M41.4047 18.9955C41.4047 19.3875 41.568 19.7632 41.8457 20.0408C42.1233 20.3185 42.499 20.4818 42.891 20.4818C43.283 20.4818 43.6586 20.3185 43.9363 20.0408C44.214 19.7632 44.3773 19.3875 44.3773 18.9955C44.3773 18.6035 44.214 18.2278 43.9363 17.9502C43.6586 17.6725 43.283 17.5255 42.891 17.5255C42.499 17.5255 42.1233 17.6888 41.8457 17.9502C41.568 18.2115 41.4047 18.6035 41.4047 18.9955Z" fill="#0075FF"/>
<path d="M60.1388 49.6856C60.1388 45.0796 56.3985 41.3393 51.7926 41.3393H38.824V31.9804C38.824 28.0441 37.6807 25.2021 35.394 23.5361C31.8007 20.8901 26.8518 22.4091 26.6558 22.4745C26.0351 22.6705 25.6268 23.2421 25.6268 23.8791V34.365C25.6268 42.6296 16.0392 45.4553 15.6309 45.5696C15.4349 45.6186 15.2715 45.7166 15.1245 45.8309C14.6182 45.1939 13.8342 44.7856 12.9686 44.7856H2.76031C1.24132 44.7856 0 46.0269 0 47.5459V76.3087C0 77.8277 1.24132 79.069 2.76031 79.069H12.9359C13.9486 79.069 14.8469 78.5137 15.3205 77.6807C16.8232 79.118 18.8485 80 21.0862 80H46.7293C52.3969 80 56.0065 77.0273 56.6435 71.8497L60.0898 49.9142C60.1225 49.8489 60.1388 49.7672 60.1388 49.6856ZM12.7562 76.0964H2.97264V47.7419H12.7562V76.0964ZM53.7362 71.4251C53.7362 71.4414 53.7362 71.4577 53.7362 71.4741C53.2789 75.1654 50.9269 77.0437 46.7456 77.0437H21.1025C18.1298 77.0437 15.7125 74.6264 15.7125 71.6537V48.4279C15.9412 48.4769 16.1862 48.4769 16.4149 48.4116C16.9049 48.2809 28.5668 44.8836 28.5668 34.365V25.0714C29.8408 24.8754 32.0457 24.7611 33.6301 25.9208C35.1 26.9988 35.8514 29.0404 35.8514 31.9804V42.8256C35.8514 43.6423 36.521 44.3119 37.3377 44.3119H51.7926C54.7325 44.3119 57.1172 46.6639 57.1825 49.5876L53.7362 71.4251Z" fill="#0075FF"/>
</svg>
