<svg width="100" height="68" viewBox="0 0 100 68" fill="none" xmlns="http://www.w3.org/2000/svg">
<path d="M8.86058 63.3343V65.6065C8.86058 66.2125 8.66843 66.7376 8.28412 67.182C7.92004 67.6263 7.44472 67.899 6.85814 68H2.42853C1.84196 67.899 1.35652 67.6263 0.972212 67.182C0.587905 66.7376 0.395752 66.2125 0.395752 65.6065V49.1855C0.395752 48.5796 0.587905 48.0545 0.972212 47.6101C1.35652 47.1657 1.84196 46.8931 2.42853 46.7921H6.85814C7.44472 46.8931 7.92004 47.1657 8.28412 47.6101C8.66843 48.0545 8.86058 48.5796 8.86058 49.1855V51.4578H6.73678V49.1855C6.73678 48.9836 6.64576 48.8826 6.46372 48.8826H2.82295C2.62068 48.8826 2.51955 48.9836 2.51955 49.1855V65.6065C2.51955 65.8085 2.62068 65.9095 2.82295 65.9095H6.46372C6.64576 65.9095 6.73678 65.8085 6.73678 65.6065V63.3343H8.86058ZM20.4126 46.7921L16.6807 60.6984V68H14.5569V60.6984L10.8251 46.7921H12.9793L15.6188 56.4568L18.2584 46.7921H20.4126ZM30.6971 55.5782C30.4341 55.9216 30.0397 56.1741 29.5138 56.3356C30.0599 56.5174 30.4544 56.7901 30.6971 57.1537C30.7375 57.2547 30.7578 57.3455 30.7578 57.4263C30.7578 57.5071 30.7578 57.598 30.7578 57.699V65.5762C30.7578 66.2428 30.5252 66.8184 30.0599 67.3032C29.5947 67.7677 29.0284 68 28.3609 68H22.2322V55.2752H24.356L22.2322 48.9129V46.7921H28.3609C29.0284 46.7921 29.5947 47.0345 30.0599 47.5192C30.5252 47.9838 30.7578 48.5493 30.7578 49.2158V54.9723C30.7578 55.0733 30.7578 55.1743 30.7578 55.2752C30.7578 55.3762 30.7375 55.4772 30.6971 55.5782ZM28.634 57.699C28.634 57.497 28.5429 57.396 28.3609 57.396H24.356V65.8792H28.3609C28.5429 65.8792 28.634 65.7782 28.634 65.5762V57.699ZM28.634 49.2158C28.634 49.0139 28.5429 48.9129 28.3609 48.9129H24.356V55.2752H28.3609C28.5429 55.2752 28.634 55.1743 28.634 54.9723V49.2158ZM34.8447 48.9129V55.2752H39.2743V57.396H34.8447V65.8792H40.3666V68H32.7209V55.2752H34.8447L32.7209 48.9129V46.7921H40.3666V48.9129H34.8447ZM42.3503 55.2752H44.4741V68H42.3503V55.2752ZM48.479 46.7921C49.1262 46.7921 49.6824 47.0345 50.1476 47.5192C50.6331 47.9838 50.8758 48.5493 50.8758 49.2158V54.9723C50.8758 55.6388 50.6331 56.2145 50.1476 56.6992C49.6824 57.1638 49.1262 57.396 48.479 57.396H47.7204L50.8758 68H48.6003L44.9292 55.2752H48.479C48.661 55.2752 48.752 55.1743 48.752 54.9723V49.2158C48.752 49.0139 48.661 48.9129 48.479 48.9129H44.4741V55.2752L42.3503 48.9129V46.7921H48.479ZM66.311 63.3343V65.6065C66.311 66.2125 66.1189 66.7376 65.7346 67.182C65.3705 67.6263 64.8952 67.899 64.3086 68H59.879C59.2924 67.899 58.8069 67.6263 58.4226 67.182C58.0383 66.7376 57.8462 66.2125 57.8462 65.6065V49.1855C57.8462 48.5796 58.0383 48.0545 58.4226 47.6101C58.8069 47.1657 59.2924 46.8931 59.879 46.7921H64.3086C64.8952 46.8931 65.3705 47.1657 65.7346 47.6101C66.1189 48.0545 66.311 48.5796 66.311 49.1855V51.4578H64.1872V49.1855C64.1872 48.9836 64.0962 48.8826 63.9142 48.8826H60.2734C60.0711 48.8826 59.97 48.9836 59.97 49.1855V65.6065C59.97 65.8085 60.0711 65.9095 60.2734 65.9095H63.9142C64.0962 65.9095 64.1872 65.8085 64.1872 65.6065V63.3343H66.311ZM75.9215 65.8489V68H68.2759V65.8489V46.7921H70.3997V65.8489H75.9215ZM86.3693 46.8224V65.6065C86.3693 66.2125 86.1771 66.7376 85.7928 67.182C85.4287 67.6263 84.9534 67.899 84.3668 68H79.9675C79.381 67.899 78.8955 67.6263 78.5112 67.182C78.1269 66.7376 77.9348 66.2125 77.9348 65.6065V46.8224H80.0586V65.6065C80.0586 65.8085 80.1597 65.9095 80.362 65.9095H83.9724C84.1545 65.9095 84.2455 65.8085 84.2455 65.6065V46.8224H86.3693ZM96.7995 55.5782C96.5366 55.9216 96.1421 56.1741 95.6162 56.3356C96.1624 56.5174 96.5568 56.7901 96.7995 57.1537C96.84 57.2547 96.8602 57.3455 96.8602 57.4263C96.8602 57.5071 96.8602 57.598 96.8602 57.699V65.5762C96.8602 66.2428 96.6276 66.8184 96.1624 67.3032C95.6972 67.7677 95.1308 68 94.4633 68H88.3346V55.2752H90.4585L88.3346 48.9129V46.7921H94.4633C95.1308 46.7921 95.6972 47.0345 96.1624 47.5192C96.6276 47.9838 96.8602 48.5493 96.8602 49.2158V54.9723C96.8602 55.0733 96.8602 55.1743 96.8602 55.2752C96.8602 55.3762 96.84 55.4772 96.7995 55.5782ZM94.7364 57.699C94.7364 57.497 94.6454 57.396 94.4633 57.396H90.4585V65.8792H94.4633C94.6454 65.8792 94.7364 65.7782 94.7364 65.5762V57.699ZM94.7364 49.2158C94.7364 49.0139 94.6454 48.9129 94.4633 48.9129H90.4585V55.2752H94.4633C94.6454 55.2752 94.7364 55.1743 94.7364 54.9723V49.2158Z" fill="white"/>
<path d="M6.67478 42.4158H0V0H6.67478V42.4158ZM31.481 0H32.8767L32.6946 1.45425L25.8378 41.4463L25.7164 42.4158H24.6849H18.8596H17.828L17.646 41.4463L10.8498 1.45425L10.6071 0H12.0634H16.3717H17.4033L17.5853 1.0301L21.7722 29.8729L25.9592 1.0301L26.1412 0H27.1728H31.481ZM42.9998 0H53.6795V4.24159V6.66535H42.9998V14.6032H51.495V15.8151V20.0566V21.2685H42.9998V35.7505H53.6795V38.1743V42.4158H42.9998H36.3251V37.9925V14.6032H42.9998L36.3251 1.45425V0H42.9998ZM72.7688 0H77.0164V42.4158H70.3416L64.2734 23.4499V42.4158H57.5986V0H60.0258H64.2734V0.12119L70.3416 20.1172V0H72.7688ZM100 0V6.66535H93.9927V34.478V42.4158H87.3179V34.478V6.66535H80.8858V0H87.3179H93.9927H100Z" fill="white"/>
</svg>
