<svg width="149" height="101" viewBox="0 0 149 101" fill="none" xmlns="http://www.w3.org/2000/svg">
<path d="M13.1419 94.07V97.445C13.1419 98.345 12.8569 99.125 12.2869 99.785C11.7469 100.445 11.0419 100.85 10.1719 101H3.60191C2.73191 100.85 2.01191 100.445 1.44191 99.785C0.871914 99.125 0.586914 98.345 0.586914 97.445V73.055C0.586914 72.155 0.871914 71.375 1.44191 70.715C2.01191 70.055 2.73191 69.65 3.60191 69.5H10.1719C11.0419 69.65 11.7469 70.055 12.2869 70.715C12.8569 71.375 13.1419 72.155 13.1419 73.055V76.43H9.99187V73.055C9.99187 72.755 9.85687 72.605 9.58687 72.605H4.18691C3.88691 72.605 3.73691 72.755 3.73691 73.055V97.445C3.73691 97.745 3.88691 97.895 4.18691 97.895H9.58687C9.85687 97.895 9.99187 97.745 9.99187 97.445V94.07H13.1419ZM30.2757 69.5L24.7407 90.155V101H21.5907V90.155L16.0557 69.5H19.2507L23.1657 83.855L27.0807 69.5H30.2757ZM45.5296 82.55C45.1396 83.06 44.5546 83.435 43.7746 83.675C44.5846 83.945 45.1696 84.35 45.5296 84.89C45.5896 85.04 45.6196 85.175 45.6196 85.295C45.6196 85.415 45.6196 85.55 45.6196 85.7V97.4C45.6196 98.39 45.2746 99.245 44.5846 99.965C43.8946 100.655 43.0546 101 42.0646 101H32.9746V82.1H36.1246L32.9746 72.65V69.5H42.0646C43.0546 69.5 43.8946 69.86 44.5846 70.58C45.2746 71.27 45.6196 72.11 45.6196 73.1V81.65C45.6196 81.8 45.6196 81.95 45.6196 82.1C45.6196 82.25 45.5896 82.4 45.5296 82.55ZM42.4696 85.7C42.4696 85.4 42.3346 85.25 42.0646 85.25H36.1246V97.85H42.0646C42.3346 97.85 42.4696 97.7 42.4696 97.4V85.7ZM42.4696 73.1C42.4696 72.8 42.3346 72.65 42.0646 72.65H36.1246V82.1H42.0646C42.3346 82.1 42.4696 81.95 42.4696 81.65V73.1ZM51.6813 72.65V82.1H58.2513V85.25H51.6813V97.85H59.8713V101H48.5313V82.1H51.6813L48.5313 72.65V69.5H59.8713V72.65H51.6813ZM62.8135 82.1H65.9635V101H62.8135V82.1ZM71.9035 69.5C72.8635 69.5 73.6885 69.86 74.3785 70.58C75.0985 71.27 75.4585 72.11 75.4585 73.1V81.65C75.4585 82.64 75.0985 83.495 74.3785 84.215C73.6885 84.905 72.8635 85.25 71.9035 85.25H70.7785L75.4585 101H72.0835L66.6385 82.1H71.9035C72.1735 82.1 72.3085 81.95 72.3085 81.65V73.1C72.3085 72.8 72.1735 72.65 71.9035 72.65H65.9635V82.1L62.8135 72.65V69.5H71.9035ZM98.3519 94.07V97.445C98.3519 98.345 98.0669 99.125 97.4969 99.785C96.9569 100.445 96.2519 100.85 95.3819 101H88.8119C87.9419 100.85 87.2219 100.445 86.6519 99.785C86.0819 99.125 85.7969 98.345 85.7969 97.445V73.055C85.7969 72.155 86.0819 71.375 86.6519 70.715C87.2219 70.055 87.9419 69.65 88.8119 69.5H95.3819C96.2519 69.65 96.9569 70.055 97.4969 70.715C98.0669 71.375 98.3519 72.155 98.3519 73.055V76.43H95.2019V73.055C95.2019 72.755 95.0669 72.605 94.7969 72.605H89.3969C89.0969 72.605 88.9469 72.755 88.9469 73.055V97.445C88.9469 97.745 89.0969 97.895 89.3969 97.895H94.7969C95.0669 97.895 95.2019 97.745 95.2019 97.445V94.07H98.3519ZM112.606 97.805V101H101.266V97.805V69.5H104.416V97.805H112.606ZM128.102 69.545V97.445C128.102 98.345 127.817 99.125 127.247 99.785C126.707 100.445 126.002 100.85 125.132 101H118.607C117.737 100.85 117.017 100.445 116.447 99.785C115.877 99.125 115.592 98.345 115.592 97.445V69.545H118.742V97.445C118.742 97.745 118.892 97.895 119.192 97.895H124.547C124.817 97.895 124.952 97.745 124.952 97.445V69.545H128.102ZM143.572 82.55C143.182 83.06 142.597 83.435 141.817 83.675C142.627 83.945 143.212 84.35 143.572 84.89C143.632 85.04 143.662 85.175 143.662 85.295C143.662 85.415 143.662 85.55 143.662 85.7V97.4C143.662 98.39 143.317 99.245 142.627 99.965C141.937 100.655 141.097 101 140.107 101H131.017V82.1H134.167L131.017 72.65V69.5H140.107C141.097 69.5 141.937 69.86 142.627 70.58C143.317 71.27 143.662 72.11 143.662 73.1V81.65C143.662 81.8 143.662 81.95 143.662 82.1C143.662 82.25 143.632 82.4 143.572 82.55ZM140.512 85.7C140.512 85.4 140.377 85.25 140.107 85.25H134.167V97.85H140.107C140.377 97.85 140.512 97.7 140.512 97.4V85.7ZM140.512 73.1C140.512 72.8 140.377 72.65 140.107 72.65H134.167V82.1H140.107C140.377 82.1 140.512 81.95 140.512 81.65V73.1Z" fill="white"/>
<path d="M9.89998 63H0V-3.8147e-06H9.89998V63ZM46.6924 -3.8147e-06H48.7624L48.4924 2.15999L38.3224 61.56L38.1424 63H36.6124H27.9724H26.4424L26.1724 61.56L16.0924 2.15999L15.7324 -3.8147e-06H17.8924H24.2824H25.8124L26.0824 1.53L32.2924 44.37L38.5024 1.53L38.7724 -3.8147e-06H40.3024H46.6924ZM63.777 -3.8147e-06H79.617V6.3V9.9H63.777V21.69H76.377V23.49V29.79V31.59H63.777V53.1H79.617V56.7V63H63.777H53.877V56.43V21.69H63.777L53.877 2.15999V-3.8147e-06H63.777ZM107.93 -3.8147e-06H114.23V63H104.33L95.3297 34.83V63H85.4297V-3.8147e-06H89.0297H95.3297V0.179999L104.33 29.88V-3.8147e-06H107.93ZM148.319 -3.8147e-06V9.9H139.409V51.21V63H129.509V51.21V9.9H119.969V-3.8147e-06H129.509H139.409H148.319Z" fill="white"/>
</svg>
