<svg width="19" height="24" viewBox="0 0 19 24" fill="none" xmlns="http://www.w3.org/2000/svg">
<path d="M2.95675 0.639145L4.61663 0.138813C6.17959 -0.332303 7.8495 0.429065 8.51883 1.91795L9.55211 4.21643C10.1226 5.48551 9.82197 6.97697 8.80435 7.92591L6.99942 9.60903C6.97712 9.62983 6.9588 9.65454 6.94539 9.68196C6.75661 10.0678 7.04269 11.0988 7.94217 12.6568C8.95598 14.4127 9.73958 15.1076 10.1015 14.9997L12.4709 14.2753C13.8011 13.8686 15.2427 14.3536 16.0566 15.4817L17.5241 17.5154C18.4768 18.8358 18.3055 20.6573 17.1233 21.7769L15.8612 22.9721C14.9698 23.8164 13.7215 24.1707 12.5194 23.9208C9.00221 23.1896 5.85103 20.3573 3.03939 15.4874C0.224977 10.6127 -0.651266 6.46409 0.479127 3.05068C0.863055 1.89135 1.78747 0.991596 2.95675 0.639145ZM3.38965 2.07532C2.68808 2.28679 2.13343 2.82664 1.90308 3.52224C0.929078 6.46339 1.71804 10.1987 4.33843 14.7374C6.95631 19.2717 9.79386 21.8221 12.8247 22.4522C13.5459 22.6022 14.2949 22.3895 14.8298 21.883L16.0919 20.6877C16.7284 20.0849 16.8207 19.1041 16.3077 18.3931L14.8402 16.3594C14.402 15.7519 13.6257 15.4908 12.9094 15.7098L10.535 16.4357C9.22086 16.8275 7.98571 15.7322 6.64313 13.4068C5.50655 11.4381 5.11199 10.0162 5.59799 9.02278C5.69191 8.8308 5.8202 8.65766 5.97647 8.51196L7.78136 6.82887C8.3293 6.31791 8.49119 5.51481 8.18399 4.83147L7.15072 2.53299C6.79031 1.73128 5.89113 1.32131 5.04953 1.57499L3.38965 2.07532Z" fill="#0075FF"/>
</svg>
