<svg width="16" height="21" viewBox="0 0 16 21" fill="none" xmlns="http://www.w3.org/2000/svg">
<path d="M7.17783 20.5763C1.12375 11.9368 0 11.0501 0 7.875C0 3.52574 3.58171 0 8 0C12.4183 0 16 3.52574 16 7.875C16 11.0501 14.8763 11.9368 8.82217 20.5763C8.42488 21.1413 7.57508 21.1412 7.17783 20.5763ZM8 11.1562C9.84096 11.1562 11.3333 9.68719 11.3333 7.875C11.3333 6.06281 9.84096 4.59375 8 4.59375C6.15904 4.59375 4.66667 6.06281 4.66667 7.875C4.66667 9.68719 6.15904 11.1562 8 11.1562Z" fill="#0075FF"/>
</svg>
